<?xml version="1.0" encoding="utf-8"?>
<!-- Generator: Adobe Illustrator 21.0.0, SVG Export Plug-In . SVG Version: 6.00 Build 0)  -->
<svg version="1.1" id="Layer_1" xmlns="http://www.w3.org/2000/svg" xmlns:xlink="http://www.w3.org/1999/xlink" x="0px" y="0px"
	 viewBox="0 0 256 206.7" style="enable-background:new 0 0 256 206.7;" xml:space="preserve">
<style type="text/css">
	.st0{fill:#15AA98;}
	.st1{fill:#39BADD;}
	.st2{fill:#7B68EE;}
	.st3{fill:#FFE400;}
	.st4{fill:#1B66FA;}
	.st5{fill:#FF8E2A;}
	.st6{fill:#7FB817;}
	.st7{fill:#FC6BE9;}
	.st8{fill:#9E35AE;}
	.st9{fill:#D01131;}
	.st10{fill:#B291EF;}
</style>
<g>
	<g>
		<path class="st0" d="M-125.4,91.8c0,5.2-4.2,9.4-9.4,9.4h-25.4c-5.2,0-9.4-4.2-9.4-9.4V66.3c0-5.2,4.2-9.4,9.4-9.4h25.4
			c5.2,0,9.4,4.2,9.4,9.4V91.8z"/>
	</g>
	<g>
		<path class="st1" d="M-76.7,91.8c0,5.2-4.2,9.4-9.4,9.4h-25.4c-5.2,0-9.4-4.2-9.4-9.4V66.3c0-5.2,4.2-9.4,9.4-9.4h25.4
			c5.2,0,9.4,4.2,9.4,9.4V91.8z"/>
	</g>
	<g>
		<path class="st2" d="M-28,91.8c0,5.2-4.2,9.4-9.4,9.4h-25.4c-5.2,0-9.4-4.2-9.4-9.4V66.3c0-5.2,4.2-9.4,9.4-9.4h25.4
			c5.2,0,9.4,4.2,9.4,9.4V91.8z"/>
	</g>
	<g>
		<path class="st3" d="M-223.7,41.8c0,5.2-4.2,9.4-9.4,9.4h-25.4c-5.2,0-9.4-4.2-9.4-9.4V16.4c0-5.2,4.2-9.4,9.4-9.4h25.4
			c5.2,0,9.4,4.2,9.4,9.4V41.8z"/>
	</g>
	<g>
		<path class="st4" d="M-76.7,41.8c0,5.2-4.2,9.4-9.4,9.4h-25.4c-5.2,0-9.4-4.2-9.4-9.4V16.4c0-5.2,4.2-9.4,9.4-9.4h25.4
			c5.2,0,9.4,4.2,9.4,9.4V41.8z"/>
	</g>
	<g>
		<path class="st5" d="M-223.7,91.8c0,5.2-4.2,9.4-9.4,9.4h-25.4c-5.2,0-9.4-4.2-9.4-9.4V66.3c0-5.2,4.2-9.4,9.4-9.4h25.4
			c5.2,0,9.4,4.2,9.4,9.4V91.8z"/>
	</g>
	<g>
		<path class="st6" d="M-174.6,91.8c0,5.2-4.2,9.4-9.4,9.4h-25.4c-5.2,0-9.4-4.2-9.4-9.4V66.3c0-5.2,4.2-9.4,9.4-9.4h25.4
			c5.2,0,9.4,4.2,9.4,9.4V91.8z"/>
	</g>
	<g>
		<path class="st7" d="M-125.4,190.3c0,5.2-4.2,9.4-9.4,9.4h-25.4c-5.2,0-9.4-4.2-9.4-9.4v-25.4c0-5.2,4.2-9.4,9.4-9.4h25.4
			c5.2,0,9.4,4.2,9.4,9.4V190.3z"/>
	</g>
	<g>
		<path class="st8" d="M-28,190.3c0,5.2-4.2,9.4-9.4,9.4h-25.4c-5.2,0-9.4-4.2-9.4-9.4v-25.4c0-5.2,4.2-9.4,9.4-9.4h25.4
			c5.2,0,9.4,4.2,9.4,9.4V190.3z"/>
	</g>
	<g>
		<path class="st9" d="M-76.3,190.3c0,5.2-4.2,9.4-9.4,9.4h-25.4c-5.2,0-9.4-4.2-9.4-9.4v-25.4c0-5.2,4.2-9.4,9.4-9.4h25.4
			c5.2,0,9.4,4.2,9.4,9.4V190.3z"/>
	</g>
	<g>
		<path d="M-215.5,41.1V13.8h4.3v26.6c0,1.3,0.4,2.3,1.1,3.1c0.7,0.7,1.7,1.1,2.9,1.1v3.8C-212.7,48.4-215.5,46-215.5,41.1z"/>
		<path d="M-200.1,48V27.4h-3.3v-3.6h7.6V48H-200.1z M-197.7,14.6c0.7,0,1.4,0.3,1.9,0.8c0.5,0.5,0.8,1.1,0.8,1.9
			c0,0.7-0.3,1.4-0.8,1.9c-0.5,0.5-1.1,0.8-1.9,0.8c-0.7,0-1.3-0.3-1.9-0.8c-0.5-0.5-0.8-1.1-0.8-1.9c0-0.7,0.3-1.4,0.8-1.9
			C-199.1,14.8-198.5,14.6-197.7,14.6z"/>
		<path d="M-174.1,48V33.9c0-2.6-0.4-4.4-1.2-5.4c-0.8-1-2.1-1.5-3.9-1.5c-1,0-2,0.3-3.1,0.9c-1.1,0.6-1.9,1.3-2.5,2.2v18h-4.3V23.7
			h2.9l1.4,3.1c1.4-2.4,3.7-3.6,6.9-3.6c5.3,0,8,3.2,8,9.7v15H-174.1z"/>
		<path d="M-143.3,36.3h-17.5c0,2.8,0.8,5,2.3,6.5c1.4,1.3,3.1,2,5.3,2c2.5,0,4.5-0.7,6.2-2.1l1.8,3.1c-0.7,0.7-1.7,1.2-3.1,1.7
			c-1.7,0.6-3.6,0.9-5.7,0.9c-3,0-5.6-1-7.8-3.1c-2.4-2.3-3.5-5.3-3.5-9.2c0-4,1.2-7.2,3.6-9.6c2.2-2.2,4.7-3.2,7.7-3.2
			c3.5,0,6.2,1,8.1,2.9c1.9,1.9,2.8,4.3,2.8,7.4C-142.9,34.6-143,35.5-143.3,36.3z M-153.7,26.9c-1.9,0-3.5,0.6-4.8,1.9
			c-1.2,1.2-1.9,2.6-2.1,4.4h13.4c0-1.7-0.5-3.2-1.6-4.3C-150,27.5-151.6,26.9-153.7,26.9z"/>
	</g>
	<g>
		<path d="M-248.4,146.1v-1.8c-1.5,1.5-3.7,2.2-6.5,2.2c-3,0-5.5-1.1-7.4-3.3c-1.9-2.2-2.8-5.1-2.8-8.7c0-3.6,1.1-6.7,3.3-9.3
			c2.2-2.6,4.8-3.9,7.8-3.9c2.5,0,4.4,0.6,5.7,1.8V112h4.3v34.1H-248.4z M-248.4,127.5c-1.1-1.6-2.6-2.4-4.5-2.4
			c-2.3,0-4.2,0.9-5.6,2.6c-1.4,1.7-2.1,3.9-2.1,6.6c0,5.8,2.7,8.8,8,8.8c0.7,0,1.5-0.2,2.4-0.6c1-0.4,1.5-0.9,1.8-1.4V127.5z"/>
		<path d="M-235.9,146.2v-20.6h-3.3v-3.6h7.6v24.2H-235.9z M-233.5,112.8c0.7,0,1.4,0.3,1.9,0.8c0.5,0.5,0.8,1.1,0.8,1.9
			c0,0.7-0.3,1.4-0.8,1.9c-0.5,0.5-1.1,0.8-1.9,0.8c-0.7,0-1.3-0.3-1.9-0.8c-0.5-0.5-0.8-1.1-0.8-1.9s0.3-1.4,0.8-1.9
			C-234.9,113-234.2,112.8-233.5,112.8z"/>
		<path d="M-226.3,144.7l1.5-4.1c2.4,1.6,4.3,2.4,5.8,2.4c2.7,0,4-1.1,4-3.3c0-1.6-1.3-3-3.8-4.1c-2-0.9-3.3-1.6-4-2.1
			c-0.7-0.5-1.3-1-1.8-1.6c-0.5-0.6-0.9-1.2-1.1-1.9c-0.2-0.7-0.4-1.4-0.4-2.2c0-2,0.7-3.5,2.2-4.7c1.4-1.1,3.3-1.7,5.7-1.7
			c1.8,0,4,0.6,6.7,1.7l-1.2,4c-1.7-1.4-3.4-2-5.1-2c-1,0-1.9,0.2-2.6,0.7c-0.7,0.5-1.1,1.1-1.1,1.8c0,1.6,0.9,2.7,2.6,3.5l3.1,1.4
			c1.9,0.9,3.3,1.8,4.1,2.9c0.9,1.1,1.3,2.5,1.3,4.1c0,2.2-0.8,3.9-2.3,5.1c-1.5,1.2-3.6,1.8-6.3,1.8
			C-221.7,146.6-224.1,146-226.3,144.7z"/>
		<path d="M-204.5,125.3h-2.8v-3.4h2.8v-5.1l4.3-1.7v6.7h6.6v3.4h-6.6v12c0,2,0.3,3.5,1,4.3c0.7,0.9,1.8,1.3,3.3,1.3
			c1.1,0,2.2-0.3,3.4-0.8l0.6,3.8c-1.8,0.5-3.7,0.7-5.9,0.7c-1.9,0-3.5-0.7-4.9-2.1c-1.3-1.4-2-3.2-2-5.4V125.3z"/>
		<path d="M-174.5,126.1c-0.9-0.6-1.9-1-2.8-1c-1.5,0-2.9,0.7-4,2.1c-1.1,1.4-1.7,3.1-1.7,5.1v13.9h-4.3v-24.2h4.3v3.9
			c1.6-2.9,3.9-4.3,7-4.3c0.8,0,1.9,0.1,3.3,0.4L-174.5,126.1z"/>
		<path d="M-167.5,146.2v-20.6h-3.3v-3.6h7.6v24.2H-167.5z M-165.2,112.8c0.7,0,1.4,0.3,1.9,0.8c0.5,0.5,0.8,1.1,0.8,1.9
			c0,0.7-0.3,1.4-0.8,1.9c-0.5,0.5-1.1,0.8-1.9,0.8c-0.7,0-1.3-0.3-1.9-0.8c-0.5-0.5-0.8-1.1-0.8-1.9s0.3-1.4,0.8-1.9
			C-166.6,113-165.9,112.8-165.2,112.8z"/>
		<path d="M-152.8,144.4l-1.5,2.2h-2.1V112h4.3v11.7c0.4-0.6,1.2-1.1,2.3-1.5c1.1-0.5,2.2-0.7,3.3-0.7c3.3,0,6,1.1,8.1,3.4
			c2.1,2.3,3.1,5.2,3.1,8.7c0,4-1,7.2-3.1,9.5c-2.1,2.3-4.9,3.5-8.4,3.5c-1.1,0-2.3-0.2-3.4-0.6C-151.3,145.5-152.2,145-152.8,144.4
			z M-152.1,127v14c0,0.2,0.5,0.6,1.6,1.2c1.1,0.6,1.9,0.8,2.4,0.8c2.9,0,5-0.7,6.3-2.1c1.3-1.4,1.9-3.8,1.9-7.1
			c0-2.7-0.7-4.9-2.2-6.4c-1.5-1.5-3.5-2.3-6-2.3c-0.5,0-1.3,0.2-2.2,0.7C-151.2,126.2-151.8,126.6-152.1,127z"/>
		<path d="M-126.6,121.9v15.4c0,3.7,1.6,5.6,4.9,5.6c1.4,0,2.7-0.4,3.9-1.2c1.2-0.8,2-1.8,2.3-2.8v-17h4.3v24.2h-4.3v-3.3
			c-0.5,0.9-1.5,1.8-2.9,2.6c-1.5,0.8-2.9,1.2-4.3,1.2c-2.7,0-4.7-0.8-6.1-2.3c-1.4-1.5-2.1-3.7-2.1-6.5v-15.9H-126.6z"/>
		<path d="M-103.8,125.3h-2.8v-3.4h2.8v-5.1l4.3-1.7v6.7h6.6v3.4h-6.6v12c0,2,0.3,3.5,1,4.3c0.7,0.9,1.8,1.3,3.3,1.3
			c1.1,0,2.2-0.3,3.4-0.8l0.6,3.8c-1.8,0.5-3.7,0.7-5.9,0.7c-1.9,0-3.5-0.7-4.9-2.1c-1.3-1.4-2-3.2-2-5.4V125.3z"/>
		<path d="M-84.9,146.2v-20.6h-3.3v-3.6h7.6v24.2H-84.9z M-82.5,112.8c0.7,0,1.4,0.3,1.9,0.8c0.5,0.5,0.8,1.1,0.8,1.9
			c0,0.7-0.3,1.4-0.8,1.9c-0.5,0.5-1.1,0.8-1.9,0.8c-0.7,0-1.3-0.3-1.9-0.8c-0.5-0.5-0.8-1.1-0.8-1.9s0.3-1.4,0.8-1.9
			C-83.9,113-83.3,112.8-82.5,112.8z"/>
		<path d="M-75.3,134c0-3.7,1-6.8,3-9.1c2-2.3,4.7-3.4,7.9-3.4c3.5,0,6.2,1.1,8.1,3.3c1.9,2.2,2.9,5.3,2.9,9.2c0,3.9-1,7-2.9,9.2
			c-2,2.3-4.6,3.4-8,3.4c-3.5,0-6.1-1.1-8.1-3.4C-74.4,140.9-75.3,137.8-75.3,134z M-70.8,134c0,6.1,2.1,9.1,6.4,9.1
			c2,0,3.6-0.8,4.7-2.4c1.1-1.6,1.7-3.9,1.7-6.7c0-6-2.1-9-6.4-9c-2,0-3.5,0.8-4.7,2.4C-70.2,129-70.8,131.2-70.8,134z"/>
		<path d="M-34,146.2v-14.1c0-2.6-0.4-4.4-1.2-5.4c-0.8-1-2.1-1.5-3.9-1.5c-1,0-2,0.3-3.1,0.9c-1.1,0.6-1.9,1.3-2.5,2.2v18h-4.3
			v-24.2h2.9l1.4,3.1c1.4-2.4,3.7-3.6,6.9-3.6c5.3,0,8,3.2,8,9.7v15H-34z"/>
	</g>
</g>
<g>
	<g>
		<path class="st0" d="M126.5,93.7c0,4.3-3.5,7.8-7.8,7.8H97.5c-4.3,0-7.8-3.5-7.8-7.8V72.6c0-4.3,3.5-7.8,7.8-7.8h21.1
			c4.3,0,7.8,3.5,7.8,7.8V93.7z"/>
	</g>
	<g>
		<path class="st1" d="M167,93.7c0,4.3-3.5,7.8-7.8,7.8H138c-4.3,0-7.8-3.5-7.8-7.8V72.6c0-4.3,3.5-7.8,7.8-7.8h21.1
			c4.3,0,7.8,3.5,7.8,7.8V93.7z"/>
	</g>
	<g>
		<path class="st2" d="M236.6,101.6H182c-6.3,0-11.4-5.1-11.4-11.4V76.1c0-6.3,5.1-11.4,11.4-11.4h54.6c6.3,0,11.4,5.1,11.4,11.4
			v14.1C248,96.5,242.9,101.6,236.6,101.6z"/>
	</g>
	<g>
		<path class="st3" d="M44.8,52.2c0,4.3-3.5,7.8-7.8,7.8H15.8c-4.3,0-7.8-3.5-7.8-7.8V31.1c0-4.3,3.5-7.8,7.8-7.8H37
			c4.3,0,7.8,3.5,7.8,7.8V52.2z"/>
	</g>
	<g>
		<path class="st4" d="M167,52.2c0,4.3-3.5,7.8-7.8,7.8H138c-4.3,0-7.8-3.5-7.8-7.8V31.1c0-4.3,3.5-7.8,7.8-7.8h21.1
			c4.3,0,7.8,3.5,7.8,7.8V52.2z"/>
	</g>
	<g>
		<path class="st5" d="M44.8,93.7c0,4.3-3.5,7.8-7.8,7.8H15.8c-4.3,0-7.8-3.5-7.8-7.8V72.6c0-4.3,3.5-7.8,7.8-7.8H37
			c4.3,0,7.8,3.5,7.8,7.8V93.7z"/>
	</g>
	<g>
		<path class="st6" d="M85.7,93.7c0,4.3-3.5,7.8-7.8,7.8H56.7c-4.3,0-7.8-3.5-7.8-7.8V72.6c0-4.3,3.5-7.8,7.8-7.8h21.1
			c4.3,0,7.8,3.5,7.8,7.8V93.7z"/>
	</g>
	<g>
		<path class="st7" d="M167,175.6c0,4.3-3.5,7.8-7.8,7.8H138c-4.3,0-7.8-3.5-7.8-7.8v-21.1c0-4.3,3.5-7.8,7.8-7.8h21.1
			c4.3,0,7.8,3.5,7.8,7.8V175.6z"/>
	</g>
	<g>
		<path class="st10" d="M126.5,175.6c0,4.3-3.5,7.8-7.8,7.8H97.5c-4.3,0-7.8-3.5-7.8-7.8v-21.1c0-4.3,3.5-7.8,7.8-7.8h21.1
			c4.3,0,7.8,3.5,7.8,7.8V175.6z"/>
	</g>
	<g>
		<path class="st8" d="M248,175.6c0,4.3-3.5,7.8-7.8,7.8H219c-4.3,0-7.8-3.5-7.8-7.8v-21.1c0-4.3,3.5-7.8,7.8-7.8h21.1
			c4.3,0,7.8,3.5,7.8,7.8V175.6z"/>
	</g>
	<g>
		<path class="st9" d="M207.8,175.6c0,4.3-3.5,7.8-7.8,7.8h-21.1c-4.3,0-7.8-3.5-7.8-7.8v-21.1c0-4.3,3.5-7.8,7.8-7.8H200
			c4.3,0,7.8,3.5,7.8,7.8V175.6z"/>
	</g>
	<g>
		<path d="M51.7,51.6V28.9h3.6V51c0,1.1,0.3,1.9,0.9,2.5c0.6,0.6,1.4,0.9,2.4,0.9v3.2C54,57.7,51.7,55.7,51.7,51.6z"/>
		<path d="M64.5,57.3V40.2h-2.8v-3H68v20.1H64.5z M66.4,29.6c0.6,0,1.1,0.2,1.6,0.6c0.4,0.4,0.6,0.9,0.6,1.6c0,0.6-0.2,1.1-0.6,1.6
			c-0.4,0.4-1,0.6-1.6,0.6c-0.6,0-1.1-0.2-1.6-0.6s-0.6-1-0.6-1.6c0-0.6,0.2-1.1,0.6-1.6C65.3,29.8,65.8,29.6,66.4,29.6z"/>
		<path d="M86.1,57.3V45.6c0-2.1-0.3-3.6-1-4.5c-0.6-0.9-1.7-1.3-3.2-1.3c-0.8,0-1.7,0.2-2.6,0.7c-0.9,0.5-1.6,1.1-2,1.8v15h-3.6
			V37.2h2.4l1.1,2.6c1.2-2,3.1-3,5.8-3c4.4,0,6.6,2.7,6.6,8v12.5H86.1z"/>
		<path d="M111.7,47.6H97.2c0,2.4,0.6,4.2,1.9,5.4c1.1,1.1,2.6,1.7,4.4,1.7c2,0,3.7-0.6,5.1-1.8l1.5,2.6c-0.6,0.6-1.4,1-2.5,1.4
			c-1.4,0.5-3,0.8-4.8,0.8c-2.5,0-4.7-0.9-6.4-2.6c-2-1.9-3-4.4-3-7.6c0-3.3,1-6,3-8c1.8-1.8,3.9-2.7,6.4-2.7c2.9,0,5.1,0.8,6.7,2.4
			c1.6,1.6,2.4,3.6,2.4,6.2C112,46.2,111.9,46.9,111.7,47.6z M103,39.8c-1.6,0-2.9,0.5-4,1.5c-1,1-1.6,2.2-1.7,3.6h11.1
			c0-1.4-0.5-2.6-1.4-3.6C106.1,40.3,104.7,39.8,103,39.8z"/>
	</g>
	<g>
		<path d="M64.1,138.9v-1.5c-1.2,1.2-3,1.9-5.4,1.9c-2.5,0-4.6-0.9-6.1-2.7c-1.6-1.8-2.3-4.2-2.3-7.2c0-3,0.9-5.6,2.7-7.7
			c1.8-2.1,4-3.2,6.4-3.2c2.1,0,3.7,0.5,4.7,1.5v-9.3h3.6v28.4H64.1z M64.1,123.5c-0.9-1.4-2.1-2-3.7-2c-1.9,0-3.5,0.7-4.7,2.1
			c-1.2,1.4-1.8,3.2-1.8,5.5c0,4.8,2.2,7.3,6.6,7.3c0.6,0,1.2-0.2,2-0.5c0.8-0.4,1.3-0.7,1.5-1.1V123.5z"/>
		<path d="M74.5,138.9v-17.1h-2.8v-3h6.3v20.1H74.5z M76.5,111.2c0.6,0,1.1,0.2,1.6,0.6c0.4,0.4,0.6,0.9,0.6,1.6
			c0,0.6-0.2,1.1-0.6,1.6c-0.4,0.4-1,0.6-1.6,0.6c-0.6,0-1.1-0.2-1.6-0.6c-0.4-0.4-0.6-1-0.6-1.6c0-0.6,0.2-1.1,0.6-1.6
			C75.4,111.4,75.9,111.2,76.5,111.2z"/>
		<path d="M82.5,137.7l1.3-3.4c2,1.3,3.6,2,4.8,2c2.2,0,3.3-0.9,3.3-2.8c0-1.3-1.1-2.5-3.2-3.4c-1.6-0.8-2.7-1.3-3.3-1.7
			c-0.6-0.4-1.1-0.8-1.5-1.3c-0.4-0.5-0.7-1-0.9-1.6c-0.2-0.6-0.3-1.2-0.3-1.8c0-1.7,0.6-2.9,1.8-3.9c1.2-0.9,2.8-1.4,4.7-1.4
			c1.5,0,3.3,0.5,5.5,1.4l-1,3.3c-1.4-1.1-2.8-1.7-4.3-1.7c-0.9,0-1.6,0.2-2.2,0.6c-0.6,0.4-0.9,0.9-0.9,1.5c0,1.3,0.7,2.3,2.2,2.9
			l2.6,1.2c1.6,0.7,2.7,1.5,3.4,2.4c0.7,0.9,1.1,2.1,1.1,3.4c0,1.8-0.6,3.2-1.9,4.2c-1.3,1-3,1.5-5.3,1.5
			C86.3,139.3,84.3,138.8,82.5,137.7z"/>
		<path d="M100.7,121.6h-2.3v-2.8h2.3v-4.2l3.6-1.4v5.6h5.5v2.8h-5.5v10c0,1.7,0.3,2.9,0.9,3.6c0.6,0.7,1.5,1.1,2.8,1.1
			c0.9,0,1.9-0.2,2.8-0.7l0.5,3.1c-1.5,0.4-3.1,0.6-4.9,0.6c-1.6,0-2.9-0.6-4-1.8c-1.1-1.2-1.6-2.7-1.6-4.5V121.6z"/>
		<path d="M125.6,122.2c-0.8-0.5-1.6-0.8-2.3-0.8c-1.3,0-2.4,0.6-3.3,1.7c-0.9,1.2-1.4,2.6-1.4,4.2v11.5h-3.6v-20.1h3.6v3.2
			c1.3-2.4,3.2-3.6,5.8-3.6c0.6,0,1.6,0.1,2.8,0.3L125.6,122.2z"/>
		<path d="M131.3,138.9v-17.1h-2.8v-3h6.3v20.1H131.3z M133.3,111.2c0.6,0,1.1,0.2,1.6,0.6c0.4,0.4,0.6,0.9,0.6,1.6
			c0,0.6-0.2,1.1-0.6,1.6c-0.4,0.4-1,0.6-1.6,0.6c-0.6,0-1.1-0.2-1.6-0.6c-0.4-0.4-0.6-1-0.6-1.6c0-0.6,0.2-1.1,0.6-1.6
			C132.2,111.4,132.7,111.2,133.3,111.2z"/>
		<path d="M143.6,137.5l-1.3,1.8h-1.8v-28.8h3.6v9.7c0.3-0.5,1-0.9,1.9-1.3c0.9-0.4,1.9-0.6,2.8-0.6c2.8,0,5,1,6.7,2.9
			c1.7,1.9,2.6,4.3,2.6,7.2c0,3.4-0.9,6-2.6,7.9c-1.7,1.9-4,2.9-7,2.9c-1,0-1.9-0.2-2.8-0.5C144.8,138.4,144.1,138,143.6,137.5z
			 M144.2,123v11.6c0,0.2,0.4,0.5,1.3,1c0.9,0.5,1.6,0.7,2,0.7c2.4,0,4.2-0.6,5.2-1.7s1.6-3.1,1.6-5.9c0-2.3-0.6-4.1-1.8-5.3
			c-1.2-1.3-2.9-1.9-5-1.9c-0.4,0-1,0.2-1.8,0.6C144.9,122.4,144.4,122.7,144.2,123z"/>
		<path d="M165.4,118.8v12.8c0,3.1,1.3,4.7,4,4.7c1.2,0,2.3-0.3,3.2-1c1-0.7,1.6-1.5,1.9-2.3v-14.1h3.6v20.1h-3.6v-2.8
			c-0.4,0.8-1.2,1.5-2.4,2.2c-1.2,0.7-2.4,1-3.5,1c-2.2,0-3.9-0.6-5.1-1.9c-1.2-1.3-1.8-3.1-1.8-5.4v-13.2H165.4z"/>
		<path d="M184.3,121.6H182v-2.8h2.3v-4.2l3.6-1.4v5.6h5.5v2.8h-5.5v10c0,1.7,0.3,2.9,0.9,3.6c0.6,0.7,1.5,1.1,2.8,1.1
			c0.9,0,1.9-0.2,2.8-0.7l0.5,3.1c-1.5,0.4-3.1,0.6-4.9,0.6c-1.6,0-2.9-0.6-4-1.8c-1.1-1.2-1.6-2.7-1.6-4.5V121.6z"/>
		<path d="M200,138.9v-17.1h-2.8v-3h6.3v20.1H200z M202,111.2c0.6,0,1.1,0.2,1.6,0.6c0.4,0.4,0.6,0.9,0.6,1.6c0,0.6-0.2,1.1-0.6,1.6
			c-0.4,0.4-1,0.6-1.6,0.6c-0.6,0-1.1-0.2-1.6-0.6c-0.4-0.4-0.6-1-0.6-1.6c0-0.6,0.2-1.1,0.6-1.6C200.9,111.4,201.4,111.2,202,111.2
			z"/>
		<path d="M208,128.8c0-3.1,0.8-5.6,2.5-7.5c1.7-1.9,3.9-2.9,6.6-2.9c2.9,0,5.1,0.9,6.7,2.8c1.6,1.8,2.4,4.4,2.4,7.6
			c0,3.2-0.8,5.8-2.4,7.7c-1.6,1.9-3.8,2.8-6.7,2.8c-2.9,0-5.1-0.9-6.7-2.8C208.8,134.6,208,132,208,128.8z M211.7,128.8
			c0,5,1.8,7.6,5.4,7.6c1.7,0,3-0.7,3.9-2c0.9-1.4,1.4-3.2,1.4-5.5c0-5-1.8-7.5-5.3-7.5c-1.6,0-2.9,0.7-3.9,2
			C212.2,124.7,211.7,126.5,211.7,128.8z"/>
		<path d="M242.3,138.9v-11.7c0-2.1-0.3-3.6-1-4.5c-0.6-0.9-1.7-1.3-3.2-1.3c-0.8,0-1.7,0.2-2.6,0.7c-0.9,0.5-1.6,1.1-2,1.8v15H230
			v-20.1h2.4l1.1,2.6c1.2-2,3.1-3,5.8-3c4.4,0,6.6,2.7,6.6,8v12.5H242.3z"/>
	</g>
</g>
</svg>
